Arrow.The.Ultimate.Weapon.2011.HDRip.XviD.AC3-JSB

Format                           : AVI
File size                        : 1.37 GiB
Duration                         : 1h 54mn

Format profile                   : Simple@L1
Format settings, BVOP            : No
Format settings, QPel            : No
Format settings, GMC             : No warppoints
Format settings, Matrix          : Default (MPEG)
Codec ID                         : XVID
Codec ID/Hint                    : XviD
Duration                         : 1h 54mn
Bit rate                         : 1 325 Kbps
Width                            : 720 pixels
Height                           : 400 pixels
Display aspect ratio             : 16:9
Frame rate                       : 23.976 fps
Color space                      : YUV
Chroma subsampling               : 4:2:0
Bit depth                        : 8 bits
Scan type                        : Progressive
Compression mode                 : Lossy
Bits/(Pixel*Frame)               : 0.192
Stream size                      : 1.06 GiB (77%)
Writing library                  : Lavc52.108.0

Format                           : AC-3
Format/Info                      : Audio Coding 3
Mode extension                   : CM (complete main)
Codec ID                         : 2000
Duration                         : 1h 54mn
Bit rate mode                    : Constant
Bit rate                         : 384 Kbps
Channel(s)                       : 6 channels
Channel positions                : Front: L C R, Side: L R, LFE
Sampling rate                    : 48.0 KHz
Bit depth                        : 16 bits
Compression mode                 : Lossy
Stream size                      : 88.2 MiB (6%)
Alignment                        : Aligned on interleaves
Interleave, duration             : 114 ms (2.73 video frames)
Interleave, preload duration     : 32 ms

